<?xml version="1.0" encoding="iso-8859-1"?>
<!-- Generator: Adobe Illustrator 18.0.0, SVG Export Plug-In . SVG Version: 6.00 Build 0)  -->
<!DOCTYPE svg PUBLIC "-//W3C//DTD SVG 1.1//EN" "http://www.w3.org/Graphics/SVG/1.1/DTD/svg11.dtd">
<svg version="1.1" id="Capa_1" xmlns="http://www.w3.org/2000/svg" xmlns:xlink="http://www.w3.org/1999/xlink" x="0px" y="0px"
	 viewBox="0 0 297.5 297.5" style="enable-background:new 0 0 297.5 297.5;" xml:space="preserve">
<g id="XMLID_31_">
	<g>
		<path style="fill:#BDC3C7;" d="M60.46,189.67c9.09,0,16.49,7.4,16.49,16.49c0,9.1-7.4,16.49-16.49,16.49
			c-9.1,0-16.5-7.39-16.5-16.49C43.96,197.07,51.36,189.67,60.46,189.67z"/>
		<path style="fill:#BDC3C7;" d="M221.64,189.67c9.1,0,16.49,7.4,16.49,16.49c0,9.1-7.39,16.49-16.49,16.49s-16.49-7.39-16.49-16.49
			C205.15,197.07,212.54,189.67,221.64,189.67z"/>
		<rect x="19.22" y="74.85" style="fill:#BDC3C7;" width="30.81" height="43.61"/>
		<rect x="63.3" y="74.85" style="fill:#BDC3C7;" width="33.66" height="43.61"/>
		<rect x="110.24" y="74.85" style="fill:#BDC3C7;" width="33.65" height="43.61"/>
		<rect x="157.17" y="74.85" style="fill:#BDC3C7;" width="33.66" height="43.61"/>
		<path style="fill:#BDC3C7;" d="M265.43,144.92l-61.33-24.54V74.85h18.04c2.79,0,5.36,1.5,6.72,3.93
			C228.86,78.78,265.15,143.96,265.43,144.92z"/>
		<path style="fill:#27AE60;" d="M266.2,165.65v31.03h-10.4c-4.16-14.96-17.89-25.98-34.16-25.98s-30,11.02-34.16,25.98H94.62
			c-4.16-14.96-17.89-25.98-34.16-25.98s-30,11.02-34.16,25.98h-7.08v-59.26h176.42L266.2,165.65z"/>
		<path d="M297.25,96.81v15.49c0,5.23-4.24,9.48-9.48,9.48c-5.23,0-9.48-4.25-9.48-9.48V96.81c0-3.49-2.84-6.32-6.32-6.32h-14.81
			c0,0,24,42.84,24.07,42.98c2.57,5.15,3.93,10.92,3.93,16.68v56.01c0,5.24-4.24,9.48-9.48,9.48H255.8
			c-4.16,14.96-17.89,25.98-34.16,25.98s-30-11.02-34.16-25.98H94.62c-4.16,14.96-17.89,25.98-34.16,25.98s-30-11.02-34.16-25.98
			H9.73c-5.23,0-9.48-4.24-9.48-9.48V65.36c0-5.23,4.25-9.48,9.48-9.48h212.41c9.64,0,18.55,5.23,23.27,13.64l1.12,2.01h25.44
			C285.91,71.53,297.25,82.87,297.25,96.81z M266.2,196.68v-31.03l-70.56-28.23H19.22v59.26h7.08
			c4.16-14.96,17.89-25.98,34.16-25.98s30,11.02,34.16,25.98h92.86c4.16-14.96,17.89-25.98,34.16-25.98s30,11.02,34.16,25.98H266.2z
			 M204.1,120.38l61.33,24.54c-0.28-0.96-36.57-66.14-36.57-66.14c-1.36-2.43-3.93-3.93-6.72-3.93H204.1V120.38z M238.13,206.16
			c0-9.09-7.39-16.49-16.49-16.49s-16.49,7.4-16.49,16.49c0,9.1,7.39,16.49,16.49,16.49S238.13,215.26,238.13,206.16z
			 M190.83,118.46V74.85h-33.66v43.61H190.83z M143.89,118.46V74.85h-33.65v43.61H143.89z M96.96,118.46V74.85H63.3v43.61H96.96z
			 M76.95,206.16c0-9.09-7.4-16.49-16.49-16.49c-9.1,0-16.5,7.4-16.5,16.49c0,9.1,7.4,16.49,16.5,16.49
			C69.55,222.65,76.95,215.26,76.95,206.16z M50.03,118.46V74.85H19.22v43.61H50.03z"/>
	</g>
	<g>
	</g>
</g>
<g>
</g>
<g>
</g>
<g>
</g>
<g>
</g>
<g>
</g>
<g>
</g>
<g>
</g>
<g>
</g>
<g>
</g>
<g>
</g>
<g>
</g>
<g>
</g>
<g>
</g>
<g>
</g>
<g>
</g>
</svg>
